<svg
  id="eMQ7anpjoUZ1"
  xmlns="http://www.w3.org/2000/svg"
  xmlns:xlink="http://www.w3.org/1999/xlink"
  viewBox="0 0 640 960"
  shape-rendering="geometricPrecision"
  text-rendering="geometricPrecision"
>
  <polygon
    points="0,-37.267777 8.084941,-16.788553 29.137122,-23.236079 18.166698,-4.14643 36.333396,8.292861 14.56856,11.61804 16.169883,33.577108 0,18.633888 -16.169883,33.577108 -14.56856,11.61804 -36.333396,8.292861 -18.166698,-4.14643 -29.137122,-23.236079 -8.084941,-16.788553 0,-37.267777"
    transform="matrix(-1.233787 1.594895-1.520381-1.176144 149.814763 812.447263)"
    fill="#ff00f5"
    stroke-width="0"
  />
  <polygon
    points="0,-37.267777 7.599845,-15.78124 29.137122,-23.236079 17.076697,-3.897644 36.333397,8.292862 13.694447,10.920958 16.169883,33.577109 0,17.515857 -16.169883,33.577109 -13.694447,10.920958 -36.333397,8.292862 -17.076697,-3.897644 -29.137122,-23.236079 -7.599845,-15.78124 0,-37.267777"
    transform="matrix(.433144 1.332657-2.714068 0.882134 391.22768 561.295114)"
    fill="#2fff2f"
    stroke-width="0"
  />
  <polygon
    points="0,-37.267777 8.084941,-16.788553 29.137122,-23.236079 18.166698,-4.14643 36.333396,8.292861 14.56856,11.61804 16.169883,33.577108 0,18.633888 -16.169883,33.577108 -14.56856,11.61804 -36.333396,8.292861 -18.166698,-4.14643 -29.137122,-23.236079 -8.084941,-16.788553 0,-37.267777"
    transform="matrix(-1.602934 1.350266-2.332323-.453358 158.842698 212.400599)"
    fill="#ff00f5"
    stroke-width="0"
  />
  <polygon
    points="0,-37.267777 8.084941,-16.788553 29.137122,-23.236079 18.166698,-4.14643 36.333396,8.292861 14.56856,11.61804 16.169883,33.577108 0,18.633888 -16.169883,33.577108 -14.56856,11.61804 -36.333396,8.292861 -18.166698,-4.14643 -29.137122,-23.236079 -8.084941,-16.788553 0,-37.267777"
    transform="matrix(-1.233787 1.594895-1.520381-1.176144 496.278987 228.686681)"
    fill="#ff4911"
    stroke-width="0"
  />
</svg>
